<svg width="41" height="38" viewBox="0 0 41 38" fill="none" xmlns="http://www.w3.org/2000/svg">
<path d="M4 13H37V34C37 34.7956 36.6838 35.5588 36.1213 36.1213C35.5588 36.6838 34.7956 37 34 37H7C6.20434 37 5.44129 36.6838 4.87867 36.1213C4.31608 35.5588 4 34.7956 4 34V13Z" stroke="black" stroke-width="2" stroke-linecap="round" stroke-linejoin="round"/>
<path d="M40 10V4C40 2.34316 38.6569 1 37 1H4C2.34314 1 1 2.34316 1 4V10C1 11.6568 2.34314 13 4 13H37C38.6569 13 40 11.6568 40 10Z" stroke="black" stroke-width="2" stroke-linecap="round" stroke-linejoin="round"/>
<path d="M15.9995 22H24.9995" stroke="black" stroke-width="2" stroke-linecap="round" stroke-linejoin="round"/>
</svg>
