<svg width="25" height="25" viewBox="0 0 25 25" fill="none" xmlns="http://www.w3.org/2000/svg">
<path d="M22.4585 11.8574H22.2838C21.5664 8.6508 18.7029 6.24275 15.2842 6.24275H13.1008V5.44423C14.1863 5.05745 14.9723 4.0281 14.9723 2.8116C14.9723 1.26446 13.7121 0.00429194 12.165 0.00429194C10.6179 0.00429194 9.35769 1.26446 9.35769 2.8116C9.35769 4.0281 10.1437 5.05745 11.2292 5.44423V6.24275H9.04577C5.62709 6.24275 2.76364 8.6508 2.04622 11.8574H1.87154C0.842192 11.8574 0 12.6996 0 13.7289V15.6004C0 16.6298 0.842192 17.472 1.87154 17.472H2.21465C2.95079 19.7677 4.80985 21.5519 7.14304 22.2007C6.96836 22.5688 6.86231 22.9681 6.86231 23.3985C6.86231 23.9163 7.28028 24.3343 7.79808 24.3343H16.5319C17.0497 24.3343 17.4677 23.9163 17.4677 23.3985C17.4677 22.9681 17.3616 22.5626 17.187 22.2007C19.5201 21.5582 21.3792 19.7677 22.1153 17.472H22.4585C23.4878 17.472 24.33 16.6298 24.33 15.6004V13.7289C24.33 12.6996 23.4878 11.8574 22.4585 11.8574ZM12.165 1.87583C12.6828 1.87583 13.1008 2.29381 13.1008 2.8116C13.1008 3.32939 12.6828 3.74737 12.165 3.74737C11.6472 3.74737 11.2292 3.32939 11.2292 2.8116C11.2292 2.29381 11.6472 1.87583 12.165 1.87583ZM15.2842 20.5912H9.04577C6.11993 20.5912 3.74308 18.2144 3.74308 15.2885V13.417C3.74308 10.4911 6.11993 8.11429 9.04577 8.11429H15.2842C18.2101 8.11429 20.5869 10.4911 20.5869 13.417V15.2885C20.5869 18.2144 18.2101 20.5912 15.2842 20.5912Z" fill="#FF4D4F"/>
<path d="M8.73385 10.6097C7.7045 10.6097 6.86231 11.4519 6.86231 12.4812V14.3528C6.86231 15.3821 7.7045 16.2243 8.73385 16.2243C9.76319 16.2243 10.6054 15.3821 10.6054 14.3528V12.4812C10.6054 11.4519 9.76319 10.6097 8.73385 10.6097Z" fill="#FF4D4F"/>
<path d="M15.5962 10.6097C14.5668 10.6097 13.7246 11.4519 13.7246 12.4812V14.3528C13.7246 15.3821 14.5668 16.2243 15.5962 16.2243C16.6255 16.2243 17.4677 15.3821 17.4677 14.3528V12.4812C17.4677 11.4519 16.6255 10.6097 15.5962 10.6097Z" fill="#FF4D4F"/>
<path d="M5.63333 1.82592L7.50487 2.44977C7.60469 2.48096 7.7045 2.49968 7.79808 2.49968C8.1911 2.49968 8.55293 2.25014 8.68394 1.85712C8.84614 1.36428 8.58412 0.834008 8.09128 0.671808L6.21975 0.0479614C5.73315 -0.114239 5.20288 0.147777 5.03444 0.640615C4.866 1.13345 5.13425 1.66372 5.62709 1.82592H5.63333Z" fill="#FF4D4F"/>
<path d="M5.92654 5.61891C6.02635 5.61891 6.12617 5.60643 6.21975 5.569L8.09128 4.94515C8.58412 4.78295 8.84614 4.25269 8.68394 3.75985C8.52174 3.26701 7.99147 3.00499 7.49863 3.16719L5.62709 3.79104C5.13425 3.95324 4.87224 4.48351 5.03444 4.97635C5.16545 5.36937 5.52728 5.61891 5.9203 5.61891H5.92654Z" fill="#FF4D4F"/>
<path d="M16.5319 2.49968C16.6317 2.49968 16.7316 2.4872 16.8251 2.44977L18.6967 1.82592C19.1895 1.66372 19.4515 1.13345 19.2893 0.640615C19.1271 0.147777 18.5969 -0.114239 18.104 0.0479614L16.2325 0.671808C15.7396 0.834008 15.4776 1.36428 15.6398 1.85712C15.7708 2.25014 16.1327 2.49968 16.5257 2.49968H16.5319Z" fill="#FF4D4F"/>
<path d="M16.2387 4.94515L18.1103 5.569C18.2101 5.60019 18.3099 5.61891 18.4035 5.61891C18.7965 5.61891 19.1583 5.36937 19.2893 4.97635C19.4515 4.48351 19.1895 3.95324 18.6967 3.79104L16.8251 3.16719C16.3385 3.00499 15.802 3.26701 15.6398 3.75985C15.4776 4.25269 15.7396 4.78295 16.2325 4.94515H16.2387Z" fill="#FF4D4F"/>
</svg>
