<svg width="24" height="25" viewBox="0 0 24 25" fill="none" xmlns="http://www.w3.org/2000/svg">
<path d="M8.93164 6.09375H8.77539C8.86133 6.09375 8.93164 6.02344 8.93164 5.9375V6.09375H14.8691V5.9375C14.8691 6.02344 14.9395 6.09375 15.0254 6.09375H14.8691V7.5H16.2754V5.9375C16.2754 5.24805 15.7148 4.6875 15.0254 4.6875H8.77539C8.08594 4.6875 7.52539 5.24805 7.52539 5.9375V7.5H8.93164V6.09375ZM18.7754 7.5H5.02539C4.67969 7.5 4.40039 7.7793 4.40039 8.125V8.75C4.40039 8.83594 4.4707 8.90625 4.55664 8.90625H5.73633L6.21875 19.1211C6.25 19.7871 6.80078 20.3125 7.4668 20.3125H16.334C17.002 20.3125 17.5508 19.7891 17.582 19.1211L18.0645 8.90625H19.2441C19.3301 8.90625 19.4004 8.83594 19.4004 8.75V8.125C19.4004 7.7793 19.1211 7.5 18.7754 7.5ZM16.1836 18.9063H7.61719L7.14453 8.90625H16.6562L16.1836 18.9063Z" fill="black" fill-opacity="0.85"/>
</svg>
