<svg width="24" height="25" viewBox="0 0 24 25" fill="none" xmlns="http://www.w3.org/2000/svg">
<path d="M19.2494 12.5H18.1869C18.1035 12.5 18.0352 12.5683 18.0352 12.6518V18.7232H5.58873V6.27678H11.6602C11.7436 6.27678 11.8119 6.20848 11.8119 6.125V5.0625C11.8119 4.97902 11.7436 4.91071 11.6602 4.91071H4.8298C4.49397 4.91071 4.22266 5.18203 4.22266 5.51786V19.4821C4.22266 19.818 4.49397 20.0893 4.8298 20.0893H18.7941C19.1299 20.0893 19.4012 19.818 19.4012 19.4821V12.6518C19.4012 12.5683 19.3329 12.5 19.2494 12.5Z" fill="#1890FF"/>
<path d="M8.8501 12.9345L8.81405 15.1904C8.81215 15.3593 8.94876 15.4978 9.11762 15.4978H9.12521L11.364 15.4427C11.402 15.4408 11.4399 15.4257 11.4665 15.3991L19.3575 7.52522C19.4163 7.46641 19.4163 7.36964 19.3575 7.31082L16.9991 4.95435C16.9687 4.92399 16.9308 4.91071 16.8909 4.91071C16.8511 4.91071 16.8132 4.92589 16.7828 4.95435L8.89374 12.8282C8.86633 12.8569 8.85075 12.8948 8.8501 12.9345ZM10.0549 13.3823L16.8909 6.56138L17.7485 7.41708L10.9087 14.2417L10.0416 14.2626L10.0549 13.3823Z" fill="#1890FF"/>
</svg>
