<svg width="26" height="25" viewBox="0 0 26 25" fill="none" xmlns="http://www.w3.org/2000/svg">
<g clip-path="url(#clip0_528_53371)">
<g clip-path="url(#clip1_528_53371)">
<path d="M4.17773 12.6084H7.14988C7.27502 12.607 7.39753 12.5723 7.50485 12.5079C7.61216 12.4435 7.70043 12.3518 7.76059 12.242L10.2034 7.35629C10.2637 7.23465 10.3596 7.13434 10.4785 7.06884C10.5974 7.00334 10.7335 6.97577 10.8684 6.98986C11.0029 6.99895 11.1312 7.04951 11.2357 7.13458C11.3403 7.21965 11.4158 7.33505 11.452 7.46486L14.4784 17.5349C14.5182 17.6715 14.5998 17.7922 14.7118 17.8798C14.8239 17.9675 14.9606 18.0177 15.1027 18.0234C15.2359 18.0189 15.3649 17.9755 15.4735 17.8983C15.5821 17.8209 15.6655 17.7135 15.7134 17.5891L17.5727 13.0427C17.6239 12.9152 17.712 12.8058 17.8256 12.7284C17.9392 12.6511 18.0731 12.6093 18.2106 12.6084H21.8206" stroke="black" stroke-linecap="round" stroke-linejoin="round"/>
</g>
</g>
<defs>
<clipPath id="clip0_528_53371">
<rect width="25" height="25" fill="white" transform="translate(0.5)"/>
</clipPath>
<clipPath id="clip1_528_53371">
<rect width="19" height="19" fill="white" transform="translate(3.5 3)"/>
</clipPath>
</defs>
</svg>
