<svg width="25" height="25" viewBox="0 0 25 25" fill="none" xmlns="http://www.w3.org/2000/svg">
<g clip-path="url(#clip0_644_36812)">
<path d="M20.2068 13.6429V18.7857C20.2068 19.0888 20.0863 19.3795 19.872 19.5938C19.6577 19.8081 19.367 19.9286 19.0639 19.9286H6.49247C6.18936 19.9286 5.89867 19.8081 5.68434 19.5938C5.47002 19.3795 5.34961 19.0888 5.34961 18.7857V6.21429C5.34961 5.91118 5.47002 5.62049 5.68434 5.40616C5.89867 5.19184 6.18936 5.07143 6.49247 5.07143H11.6353" stroke="#1890FF" stroke-linecap="round" stroke-linejoin="round"/>
<path d="M13.4492 7.92857C14.0038 8.95914 15.1532 9.66714 16.4812 9.66714C17.8091 9.66714 18.9586 8.95914 19.5131 7.92857" stroke="#1890FF" stroke-linecap="round" stroke-linejoin="round"/>
<path d="M14.0588 8.72053L12.7773 9.79452" stroke="#1890FF" stroke-linecap="round" stroke-linejoin="round"/>
<path d="M15.578 9.55819L14.9609 11.1122" stroke="#1890FF" stroke-linecap="round" stroke-linejoin="round"/>
<path d="M18.9023 8.72053L20.1839 9.79452" stroke="#1890FF" stroke-linecap="round" stroke-linejoin="round"/>
<path d="M17.3809 9.55819L17.9979 11.1122" stroke="#1890FF" stroke-linecap="round" stroke-linejoin="round"/>
</g>
<defs>
<clipPath id="clip0_644_36812">
<rect width="16" height="16" fill="white" transform="translate(4.77734 4.5)"/>
</clipPath>
</defs>
</svg>
