<svg width="25" height="25" viewBox="0 0 25 25" fill="none" xmlns="http://www.w3.org/2000/svg">
<path d="M22.3206 22.3214C22.3206 22.795 22.1324 23.2493 21.7976 23.5841C21.4627 23.9189 21.0084 24.1071 20.5349 24.1071H4.46345C3.98984 24.1071 3.53564 23.9189 3.20075 23.5841C2.86588 23.2493 2.67773 22.795 2.67773 22.3214V2.67857C2.67773 2.20497 2.86588 1.75077 3.20075 1.41588C3.53564 1.081 3.98984 0.89286 4.46345 0.89286H16.0706L22.3206 7.14286V22.3214Z" stroke="black" stroke-linecap="round" stroke-linejoin="round"/>
<path d="M11.2545 8.5205C10.831 8.5205 10.4877 8.8638 10.4877 9.28727V11.4438H8.3312C7.90774 11.4438 7.56445 11.7871 7.56445 12.2106V14.7025C7.56445 15.126 7.90774 15.4693 8.3312 15.4693H10.4877V17.6258C10.4877 18.0493 10.831 18.3925 11.2545 18.3925H13.7464C14.1699 18.3925 14.5132 18.0493 14.5132 17.6258V15.4693H16.6697C17.0932 15.4693 17.4365 15.126 17.4365 14.7025V12.2106C17.4365 11.7871 17.0932 11.4438 16.6697 11.4438H14.5132V9.28727C14.5132 8.8638 14.1699 8.5205 13.7464 8.5205H11.2545Z" stroke="black" stroke-linecap="round" stroke-linejoin="round"/>
</svg>
