<svg width="24" height="24" viewBox="0 0 24 24" fill="none" xmlns="http://www.w3.org/2000/svg">
<path d="M5.50042 21.6814L5.00158 21.7156L5.50042 21.6814ZM9.54668 2.3159L9.8285 1.90289L9.54668 2.3159ZM19.5 12.365C19.5 6.91671 15.0833 2.5 9.635 2.5V1.5C15.6356 1.5 20.5 6.36443 20.5 12.365H19.5ZM9.635 22.23C15.0833 22.23 19.5 17.8133 19.5 12.365H20.5C20.5 18.3656 15.6356 23.23 9.635 23.23V22.23ZM7.37304 21.9696C8.09891 22.1398 8.8561 22.23 9.635 22.23V23.23C8.77867 23.23 7.94486 23.1308 7.14468 22.9431L7.37304 21.9696ZM7.24964 20.0955C10.9511 18.673 13.5767 15.0844 13.5767 10.8837H14.5767C14.5767 15.5118 11.6833 19.4629 7.60838 21.0289L7.24964 20.0955ZM13.5767 10.8837C13.5767 7.49539 11.8689 4.5058 9.26486 2.72891L9.8285 1.90289C12.6939 3.85811 14.5767 7.15097 14.5767 10.8837H13.5767ZM7.14468 22.9431C6.58368 22.8116 6.1075 22.7012 5.77421 22.5713C5.4712 22.4532 5.0364 22.2248 5.00158 21.7156L5.99925 21.6473C5.98962 21.5064 5.85629 21.53 6.13732 21.6395C6.38808 21.7373 6.77853 21.8301 7.37304 21.9696L7.14468 22.9431ZM7.60838 21.0289C6.9432 21.2846 6.49018 21.4597 6.20127 21.613C6.05668 21.6898 5.99435 21.7405 5.9728 21.7635C5.96231 21.7747 6.00486 21.7294 5.99925 21.6473L5.00158 21.7156C4.98338 21.4493 5.0979 21.2346 5.24314 21.0797C5.37732 20.9365 5.55449 20.8242 5.73238 20.7298C6.08843 20.5408 6.6123 20.3404 7.24964 20.0955L7.60838 21.0289ZM9.635 2.5C9.80414 2.5 9.92408 2.37602 9.95741 2.25458C9.98932 2.13831 9.95373 1.98833 9.8285 1.90289L9.26486 2.72891C9.00018 2.5483 8.92434 2.24038 8.99306 1.98995C9.0632 1.73435 9.29703 1.5 9.635 1.5V2.5Z" fill="#222222"/>
</svg>
