<svg width="26" height="25" viewBox="0 0 26 25" fill="none" xmlns="http://www.w3.org/2000/svg">
<path d="M20.2596 12.3915L17.8386 10.4809C17.8184 10.465 17.794 10.4551 17.7684 10.4523C17.7428 10.4496 17.7169 10.4541 17.6937 10.4654C17.6706 10.4767 17.6511 10.4943 17.6374 10.5161C17.6238 10.538 17.6166 10.5633 17.6166 10.589V11.8166H13.4046V7.60455H14.6341C14.7479 7.60455 14.8124 7.47174 14.7422 7.38257L12.8297 4.96159C12.817 4.9452 12.8008 4.93194 12.7822 4.92281C12.7636 4.91369 12.7432 4.90894 12.7225 4.90894C12.7018 4.90894 12.6814 4.91369 12.6628 4.92281C12.6442 4.93194 12.628 4.9452 12.6153 4.96159L10.7028 7.38257C10.6869 7.40282 10.677 7.42716 10.6742 7.45278C10.6715 7.47841 10.676 7.50429 10.6873 7.52746C10.6986 7.55063 10.7162 7.57015 10.738 7.58378C10.7599 7.59742 10.7852 7.60462 10.811 7.60455H12.0385V11.8166H7.82647V10.5871C7.82647 10.4733 7.69366 10.4088 7.60448 10.479L5.1835 12.3915C5.16712 12.4042 5.15386 12.4204 5.14473 12.439C5.1356 12.4576 5.13086 12.478 5.13086 12.4987C5.13086 12.5194 5.1356 12.5398 5.14473 12.5584C5.15386 12.577 5.16712 12.5932 5.1835 12.6059L7.60259 14.5184C7.69176 14.5886 7.82457 14.526 7.82457 14.4102V13.1827H12.0366V17.3947H10.8072C10.6933 17.3947 10.6288 17.5275 10.699 17.6167L12.6115 20.0358C12.6665 20.106 12.7728 20.106 12.8259 20.0358L14.7384 17.6167C14.8086 17.5275 14.746 17.3947 14.6303 17.3947H13.4046V13.1827H17.6166V14.4121C17.6166 14.526 17.7495 14.5905 17.8386 14.5203L20.2577 12.6078C20.2741 12.595 20.2873 12.5786 20.2965 12.56C20.3056 12.5413 20.3105 12.5209 20.3106 12.5001C20.3108 12.4793 20.3063 12.4588 20.2975 12.44C20.2887 12.4212 20.2757 12.4046 20.2596 12.3915Z" fill="black" fill-opacity="0.85"/>
</svg>
