<svg width="24" height="23" viewBox="0 0 24 23" fill="none" xmlns="http://www.w3.org/2000/svg">
<path d="M18.6521 9.68616C18.8322 9.61107 18.9485 9.57772 19.0556 9.4708C19.1625 9.36386 19.2227 9.21884 19.2227 9.06762C19.2227 8.9164 19.1625 8.77137 19.0556 8.66444C18.9485 8.55752 18.9124 8.49345 18.6521 8.41709C18.3917 8.34073 5.73353 4.06151 5.73353 4.06151C5.53152 3.9924 5.31417 3.9813 5.10618 4.02948C4.89819 4.07765 4.70788 4.18317 4.55691 4.33403C4.40594 4.48489 4.30034 4.67504 4.25213 4.88288C4.20392 5.09072 4.21502 5.30789 4.28418 5.50975C4.28418 5.50975 8.66462 18.2565 8.71813 18.4299C8.77165 18.6032 8.84068 18.726 8.94769 18.833C9.0547 18.94 9.19983 19 9.35117 19C9.50251 19 9.64764 18.94 9.75465 18.833C9.86165 18.726 9.88611 18.6655 9.96633 18.4299C10.0466 18.1942 12.2042 11.9755 12.2042 11.9755C12.2042 11.9755 18.472 9.76125 18.6521 9.68616Z" stroke="#1890FF" stroke-linecap="round" stroke-linejoin="round"/>
</svg>
