<svg width="36" height="30" viewBox="0 0 36 30" fill="none" xmlns="http://www.w3.org/2000/svg">
<path d="M22.0345 27.7249H3.95175C3.11168 27.7249 2.69164 27.7249 2.37077 27.5614C2.08853 27.4176 1.85906 27.1881 1.71525 26.9058C1.55176 26.585 1.55176 26.1649 1.55176 25.3249V4.05515C1.55176 3.21507 1.55176 2.79503 1.71525 2.47417C1.85906 2.19192 2.08853 1.96245 2.37077 1.81864C2.69164 1.65515 3.11168 1.65515 3.95176 1.65515H11.6965C12.0723 1.65515 12.2601 1.65515 12.4306 1.70694C12.5816 1.75279 12.722 1.82795 12.8439 1.92813C12.9816 2.04129 13.0858 2.1976 13.2941 2.51023L15.8783 6.38703C16.0867 6.69965 16.1909 6.85597 16.3286 6.96913C16.4505 7.06931 16.5909 7.14447 16.7419 7.19032C16.9124 7.24211 17.1002 7.24211 17.4759 7.24211H27.0828C27.9229 7.24211 28.3429 7.24211 28.6638 7.4056C28.946 7.54941 29.1755 7.77888 29.3193 8.06112C29.4828 8.38199 29.4828 8.80203 29.4828 9.64211V10.9655M12.7242 18.4138H25.7587" stroke="black" stroke-width="2" stroke-linecap="round"/>
<path d="M6.59095 12.6066C6.78765 12.0164 6.886 11.7214 7.06844 11.5032C7.22953 11.3106 7.43642 11.1615 7.67012 11.0696C7.93477 10.9655 8.2458 10.9655 8.86786 10.9655L31.7393 10.9661C32.8635 10.9661 33.4256 10.9662 33.7945 11.2015C34.1175 11.4075 34.3494 11.7293 34.4427 12.1008C34.5493 12.5253 34.3715 13.0586 34.016 14.1251L30.0298 26.0838C29.8331 26.6739 29.7348 26.9689 29.5523 27.1871C29.3912 27.3797 29.1844 27.5288 28.9507 27.6207C28.686 27.7248 28.375 27.7248 27.753 27.7248H4.88153C3.75733 27.7248 3.19523 27.7248 2.82625 27.4895C2.50326 27.2835 2.27134 26.9617 2.17803 26.5901C2.07145 26.1657 2.24919 25.6324 2.60468 24.5659L6.59095 12.6066Z" stroke="black" stroke-width="2"/>
</svg>
