<svg width="26" height="19" viewBox="0 0 26 19" fill="none" xmlns="http://www.w3.org/2000/svg">
<g clip-path="url(#clip0_528_53379)">
<path d="M5.53488 16.2857H20.4634C21.213 16.2857 21.8206 15.6781 21.8206 14.9286V4.07142C21.8206 3.32189 21.213 2.71428 20.4634 2.71428H5.53488C4.78535 2.71428 4.17773 3.32189 4.17773 4.07142V14.9286C4.17773 15.6781 4.78535 16.2857 5.53488 16.2857Z" stroke="black" stroke-linecap="round" stroke-linejoin="round"/>
<path d="M12.9998 7.75463C13.771 7.75463 14.3961 7.12949 14.3961 6.35835C14.3961 5.58719 13.771 4.96205 12.9998 4.96205C12.2287 4.96205 11.6035 5.58719 11.6035 6.35835C11.6035 7.12949 12.2287 7.75463 12.9998 7.75463Z" stroke="black" stroke-linecap="round" stroke-linejoin="round"/>
<path d="M15.4417 10.198C15.4417 9.54998 15.1843 8.92846 14.726 8.47022C14.2678 8.01197 13.6463 7.75453 12.9982 7.75453C12.3501 7.75453 11.7286 8.01197 11.2704 8.47022C10.8121 8.92846 10.5547 9.54998 10.5547 10.198V11.2453H11.6019L11.951 14.0379H14.0454L14.3945 11.2453H15.4417V10.198Z" stroke="black" stroke-linecap="round" stroke-linejoin="round"/>
</g>
<defs>
<clipPath id="clip0_528_53379">
<rect width="19" height="19" fill="white" transform="translate(3.5)"/>
</clipPath>
</defs>
</svg>
