<svg width="25" height="25" viewBox="0 0 25 25" fill="none" xmlns="http://www.w3.org/2000/svg">
<path d="M14.7511 11.1906H12.5123V8.6482C12.5123 8.56472 12.444 8.49641 12.3605 8.49641H11.2221C11.1386 8.49641 11.0703 8.56472 11.0703 8.6482V11.1906H8.8315C8.74802 11.1906 8.67972 11.2589 8.67972 11.3424V12.4808C8.67972 12.5643 8.74802 12.6326 8.8315 12.6326H11.0703V15.175C11.0703 15.2585 11.1386 15.3268 11.2221 15.3268H12.3605C12.444 15.3268 12.5123 15.2585 12.5123 15.175V12.6326H14.7511C14.8346 12.6326 14.9029 12.5643 14.9029 12.4808V11.3424C14.9029 11.2589 14.8346 11.1906 14.7511 11.1906ZM20.1395 19.2353L17.3694 16.4652C19.6861 13.6401 19.5248 9.45456 16.8761 6.8078C14.0681 3.99786 9.50695 3.99786 6.68753 6.8078C3.87759 9.62722 3.87759 14.1884 6.68753 16.9964C9.33429 19.6451 13.5198 19.8063 16.3449 17.4897L19.115 20.2598C19.1757 20.3129 19.2725 20.3129 19.3237 20.2598L20.1395 19.444C20.1927 19.3927 20.1927 19.296 20.1395 19.2353ZM15.8706 15.9908C13.6165 18.243 9.9661 18.243 7.71208 15.9908C5.45996 13.7368 5.45996 10.0864 7.71208 7.83235C9.9661 5.58023 13.6165 5.58023 15.8706 7.83235C18.1227 10.0864 18.1227 13.7368 15.8706 15.9908Z" fill="#1890FF"/>
</svg>
